<mxfile host="www.draw.io" modified="2019-12-12T03:49:57.707Z" agent="Mozilla/5.0 (Windows NT 6.1; Win64; x64) AppleWebKit/537.36 (KHTML, like Gecko) Chrome/78.0.3904.108 Safari/537.36" etag="6iJwCbvkZyXDD6Ztje3S" version="12.3.9" type="github" pages="1">
  <diagram id="HYFYoNmnIQI6U9MtxXY-" name="Page-1">
    <mxGraphModel dx="8764" dy="4934" grid="1" gridSize="10" guides="1" tooltips="1" connect="1" arrows="1" fold="1" page="1" pageScale="1" pageWidth="827" pageHeight="1169" math="0" shadow="0">
      <root>
        <mxCell id="0"/>
        <mxCell id="1" parent="0"/>
        <mxCell id="3LNCatWrRXKyq6k3X2c--42" style="edgeStyle=orthogonalEdgeStyle;rounded=0;orthogonalLoop=1;jettySize=auto;html=1;exitX=0;exitY=0.5;exitDx=0;exitDy=0;entryX=1;entryY=0.5;entryDx=0;entryDy=0;align=center;strokeWidth=7;" parent="1" source="3LNCatWrRXKyq6k3X2c--2" target="3LNCatWrRXKyq6k3X2c--41" edge="1">
          <mxGeometry relative="1" as="geometry"/>
        </mxCell>
        <mxCell id="3LNCatWrRXKyq6k3X2c--2" value="&lt;b&gt;&lt;font style=&quot;font-size: 50px&quot;&gt;采集服务&lt;/font&gt;&lt;/b&gt;" style="rounded=0;whiteSpace=wrap;html=1;fillColor=#dae8fc;strokeColor=#6c8ebf;align=center;" parent="1" vertex="1">
          <mxGeometry x="601.5" y="690" width="482" height="260" as="geometry"/>
        </mxCell>
        <mxCell id="LSbhFq5ChQHliHdT3AIv-21" style="edgeStyle=orthogonalEdgeStyle;rounded=0;orthogonalLoop=1;jettySize=auto;html=1;exitX=1;exitY=0.5;exitDx=0;exitDy=0;entryX=0;entryY=0.5;entryDx=0;entryDy=0;fontSize=15;strokeWidth=7;" parent="1" source="3LNCatWrRXKyq6k3X2c--4" target="LSbhFq5ChQHliHdT3AIv-9" edge="1">
          <mxGeometry relative="1" as="geometry"/>
        </mxCell>
        <mxCell id="LSbhFq5ChQHliHdT3AIv-23" value="&lt;span style=&quot;font-size: 50px&quot;&gt;定时读取&lt;/span&gt;" style="text;html=1;align=center;verticalAlign=middle;resizable=0;points=[];;labelBackgroundColor=#ffffff;fontSize=15;" parent="LSbhFq5ChQHliHdT3AIv-21" vertex="1" connectable="0">
          <mxGeometry x="0.33" y="3" relative="1" as="geometry">
            <mxPoint as="offset"/>
          </mxGeometry>
        </mxCell>
        <mxCell id="3LNCatWrRXKyq6k3X2c--4" value="&lt;font style=&quot;font-size: 50px&quot;&gt;MongoDB&lt;br&gt;o_poi&lt;br&gt;&lt;/font&gt;" style="shape=cylinder;whiteSpace=wrap;html=1;boundedLbl=1;backgroundOutline=1;fillColor=#dae8fc;strokeColor=#6c8ebf;align=center;" parent="1" vertex="1">
          <mxGeometry x="677.5" y="1580" width="330" height="218" as="geometry"/>
        </mxCell>
        <mxCell id="3LNCatWrRXKyq6k3X2c--41" value="&lt;font style=&quot;font-size: 49px&quot;&gt;源平台&lt;/font&gt;" style="shape=process;whiteSpace=wrap;html=1;backgroundOutline=1;align=center;" parent="1" vertex="1">
          <mxGeometry x="-180" y="620" width="120" height="400" as="geometry"/>
        </mxCell>
        <mxCell id="LSbhFq5ChQHliHdT3AIv-25" style="edgeStyle=orthogonalEdgeStyle;rounded=0;orthogonalLoop=1;jettySize=auto;html=1;exitX=1;exitY=0.5;exitDx=0;exitDy=0;entryX=0.5;entryY=0;entryDx=0;entryDy=0;fontSize=15;strokeWidth=7;" parent="1" source="3LNCatWrRXKyq6k3X2c--46" target="LSbhFq5ChQHliHdT3AIv-12" edge="1">
          <mxGeometry relative="1" as="geometry"/>
        </mxCell>
        <mxCell id="LSbhFq5ChQHliHdT3AIv-27" value="&lt;span style=&quot;font-size: 50px&quot;&gt;是&lt;/span&gt;" style="text;html=1;align=center;verticalAlign=middle;resizable=0;points=[];;labelBackgroundColor=#ffffff;fontSize=15;" parent="LSbhFq5ChQHliHdT3AIv-25" vertex="1" connectable="0">
          <mxGeometry x="-0.5401" y="-200" relative="1" as="geometry">
            <mxPoint x="98" y="200" as="offset"/>
          </mxGeometry>
        </mxCell>
        <mxCell id="LSbhFq5ChQHliHdT3AIv-28" value="&lt;font style=&quot;font-size: 49px&quot;&gt;更新数据存入&lt;/font&gt;" style="text;html=1;align=center;verticalAlign=middle;resizable=0;points=[];;labelBackgroundColor=#ffffff;fontSize=15;" parent="LSbhFq5ChQHliHdT3AIv-25" vertex="1" connectable="0">
          <mxGeometry x="0.6327" y="3" relative="1" as="geometry">
            <mxPoint as="offset"/>
          </mxGeometry>
        </mxCell>
        <mxCell id="LSbhFq5ChQHliHdT3AIv-29" style="edgeStyle=orthogonalEdgeStyle;rounded=0;orthogonalLoop=1;jettySize=auto;html=1;exitX=0;exitY=0.25;exitDx=0;exitDy=0;fontSize=15;strokeWidth=7;" parent="1" source="3LNCatWrRXKyq6k3X2c--46" edge="1">
          <mxGeometry relative="1" as="geometry">
            <mxPoint x="1600" y="2640" as="targetPoint"/>
          </mxGeometry>
        </mxCell>
        <mxCell id="LSbhFq5ChQHliHdT3AIv-30" value="&lt;span style=&quot;font-size: 50px&quot;&gt;否&lt;/span&gt;" style="text;html=1;align=center;verticalAlign=middle;resizable=0;points=[];;labelBackgroundColor=#ffffff;fontSize=15;" parent="LSbhFq5ChQHliHdT3AIv-29" vertex="1" connectable="0">
          <mxGeometry x="-0.1221" y="45" relative="1" as="geometry">
            <mxPoint x="-50" y="45" as="offset"/>
          </mxGeometry>
        </mxCell>
        <mxCell id="3LNCatWrRXKyq6k3X2c--46" value="&lt;font style=&quot;font-size: 50px&quot;&gt;判断数据是否改变&lt;/font&gt;" style="shape=parallelogram;perimeter=parallelogramPerimeter;whiteSpace=wrap;html=1;fillColor=#dae8fc;strokeColor=#6c8ebf;align=center;" parent="1" vertex="1">
          <mxGeometry x="2106" y="1850" width="520" height="170" as="geometry"/>
        </mxCell>
        <mxCell id="3LNCatWrRXKyq6k3X2c--82" value="&lt;table border=&quot;1&quot; width=&quot;100%&quot; style=&quot;width: 100% ; height: 100% ; border-collapse: collapse ; font-size: 35px&quot;&gt;&lt;tbody&gt;&lt;tr&gt;&lt;td&gt;&lt;font style=&quot;font-size: 35px&quot;&gt;中文名称&lt;/font&gt;&lt;/td&gt;&lt;td&gt;&lt;font style=&quot;font-size: 35px&quot;&gt;英文名称&lt;/font&gt;&lt;/td&gt;&lt;td&gt;&lt;font style=&quot;font-size: 35px&quot;&gt;源&lt;/font&gt;&lt;/td&gt;&lt;/tr&gt;&lt;tr&gt;&lt;td&gt;&lt;font style=&quot;font-size: 35px&quot;&gt;携程&lt;/font&gt;&lt;/td&gt;&lt;td&gt;&lt;font style=&quot;font-size: 35px&quot;&gt;&lt;a href=&quot;https://www.ctrip.com/&quot;&gt;ctrip&lt;/a&gt;&lt;br&gt;&lt;/font&gt;&lt;/td&gt;&lt;td&gt;&lt;font style=&quot;font-size: 35px&quot;&gt;&lt;a href=&quot;https://www.ctrip.com/&quot;&gt;https://www.ctrip.com/&lt;/a&gt;&lt;br&gt;&lt;/font&gt;&lt;/td&gt;&lt;/tr&gt;&lt;tr&gt;&lt;td&gt;&lt;font style=&quot;font-size: 35px&quot;&gt;穷游&lt;/font&gt;&lt;/td&gt;&lt;td&gt;&lt;font style=&quot;font-size: 35px&quot;&gt;&lt;a href=&quot;https://www.qyer.com/&quot;&gt;qyer&lt;/a&gt;&lt;br&gt;&lt;/font&gt;&lt;/td&gt;&lt;td&gt;&lt;font style=&quot;font-size: 35px&quot;&gt;&lt;a href=&quot;https://www.qyer.com/&quot;&gt;https://www.qyer.com/&lt;/a&gt;&lt;br&gt;&lt;/font&gt;&lt;/td&gt;&lt;/tr&gt;&lt;/tbody&gt;&lt;/table&gt;" style="text;html=1;strokeColor=#82b366;fillColor=#d5e8d4;overflow=fill;fontSize=25;align=left;" parent="1" vertex="1">
          <mxGeometry x="-910" y="550" width="730" height="280" as="geometry"/>
        </mxCell>
        <mxCell id="3LNCatWrRXKyq6k3X2c--87" value="&lt;table border=&quot;1&quot; width=&quot;100%&quot; style=&quot;width: 100% ; height: 100% ; border-collapse: collapse ; font-size: 35px&quot;&gt;&lt;tbody&gt;&lt;tr&gt;&lt;td&gt;马蜂窝&amp;nbsp; &amp;nbsp;&amp;nbsp;&lt;/td&gt;&lt;td&gt;&lt;a href=&quot;http://www.mafengwo.cn/&quot;&gt;mafengwo&lt;/a&gt;&amp;nbsp;&amp;nbsp;&lt;br&gt;&lt;/td&gt;&lt;td&gt;&lt;a href=&quot;http://www.mafengwo.cn/&quot;&gt;http://www.mafengwo.cn/&lt;/a&gt;&lt;br&gt;&lt;/td&gt;&lt;/tr&gt;&lt;tr&gt;&lt;td&gt;去哪儿&lt;/td&gt;&lt;td&gt;&lt;font style=&quot;font-size: 35px&quot;&gt;&amp;nbsp;&lt;a href=&quot;https://www.qunar.com/?ex_track=auto_4e0d874a&quot;&gt;qunar&lt;/a&gt;&amp;nbsp; &amp;nbsp; &amp;nbsp;&lt;br&gt;&lt;/font&gt;&lt;/td&gt;&lt;td&gt;&lt;font style=&quot;font-size: 35px&quot;&gt;&lt;a href=&quot;https://www.qunar.com/?ex_track=auto_4e0d874a&quot;&gt;https://www.qunar.com/&lt;/a&gt;&amp;nbsp; &amp;nbsp; &amp;nbsp; &amp;nbsp; &amp;nbsp; &amp;nbsp; &amp;nbsp; &amp;nbsp; &amp;nbsp;&lt;br&gt;&lt;/font&gt;&lt;/td&gt;&lt;/tr&gt;&lt;tr&gt;&lt;td&gt;&lt;br&gt;&lt;/td&gt;&lt;td&gt;&lt;font style=&quot;font-size: 35px&quot;&gt;&lt;br&gt;&lt;/font&gt;&lt;/td&gt;&lt;td&gt;&lt;font style=&quot;font-size: 35px&quot;&gt;&lt;br&gt;&lt;/font&gt;&lt;/td&gt;&lt;/tr&gt;&lt;/tbody&gt;&lt;/table&gt;" style="text;html=1;strokeColor=#82b366;fillColor=#d5e8d4;overflow=fill;fontSize=25;align=left;" parent="1" vertex="1">
          <mxGeometry x="-910" y="830" width="730" height="302" as="geometry"/>
        </mxCell>
        <mxCell id="LSbhFq5ChQHliHdT3AIv-6" value="" style="endArrow=classic;html=1;fontSize=30;exitX=0.5;exitY=1;exitDx=0;exitDy=0;entryX=0.5;entryY=0;entryDx=0;entryDy=0;strokeWidth=7;" parent="1" source="3LNCatWrRXKyq6k3X2c--2" target="3LNCatWrRXKyq6k3X2c--4" edge="1">
          <mxGeometry width="50" height="50" relative="1" as="geometry">
            <mxPoint x="310" y="1120" as="sourcePoint"/>
            <mxPoint x="360" y="1070" as="targetPoint"/>
          </mxGeometry>
        </mxCell>
        <mxCell id="LSbhFq5ChQHliHdT3AIv-7" value="&lt;font style=&quot;font-size: 41px&quot;&gt;元数据存入&lt;/font&gt;" style="text;html=1;align=center;verticalAlign=middle;resizable=0;points=[];;labelBackgroundColor=#ffffff;fontSize=30;" parent="LSbhFq5ChQHliHdT3AIv-6" vertex="1" connectable="0">
          <mxGeometry x="0.2403" y="3" relative="1" as="geometry">
            <mxPoint y="-1" as="offset"/>
          </mxGeometry>
        </mxCell>
        <mxCell id="LSbhFq5ChQHliHdT3AIv-9" value="&lt;span style=&quot;font-size: 50px&quot;&gt;&lt;b&gt;监控服务&lt;/b&gt;&lt;/span&gt;" style="rounded=0;whiteSpace=wrap;html=1;fillColor=#dae8fc;strokeColor=#6c8ebf;align=center;" parent="1" vertex="1">
          <mxGeometry x="2125" y="690" width="482" height="260" as="geometry"/>
        </mxCell>
        <mxCell id="LSbhFq5ChQHliHdT3AIv-13" value="" style="endArrow=classic;html=1;fontSize=30;entryX=0.5;entryY=0;entryDx=0;entryDy=0;exitX=0.5;exitY=1;exitDx=0;exitDy=0;strokeWidth=7;" parent="1" source="LSbhFq5ChQHliHdT3AIv-9" target="3LNCatWrRXKyq6k3X2c--46" edge="1">
          <mxGeometry width="50" height="50" relative="1" as="geometry">
            <mxPoint x="1450" y="960" as="sourcePoint"/>
            <mxPoint x="1400" y="1040" as="targetPoint"/>
          </mxGeometry>
        </mxCell>
        <mxCell id="LSbhFq5ChQHliHdT3AIv-19" value="&lt;span style=&quot;font-size: 50px&quot;&gt;&lt;b&gt;开始&lt;/b&gt;&lt;/span&gt;" style="strokeWidth=2;html=1;shape=mxgraph.flowchart.terminator;whiteSpace=wrap;fillColor=#dae8fc;strokeColor=#6c8ebf;align=center;" parent="1" vertex="1">
          <mxGeometry x="700.5" y="310" width="284" height="160" as="geometry"/>
        </mxCell>
        <mxCell id="LSbhFq5ChQHliHdT3AIv-20" value="" style="endArrow=classic;html=1;fontSize=15;exitX=0.5;exitY=0;exitDx=0;exitDy=0;entryX=0.5;entryY=1;entryDx=0;entryDy=0;entryPerimeter=0;strokeWidth=7;" parent="1" source="3LNCatWrRXKyq6k3X2c--2" target="LSbhFq5ChQHliHdT3AIv-19" edge="1">
          <mxGeometry width="50" height="50" relative="1" as="geometry">
            <mxPoint x="810" y="550" as="sourcePoint"/>
            <mxPoint x="860" y="500" as="targetPoint"/>
          </mxGeometry>
        </mxCell>
        <mxCell id="LSbhFq5ChQHliHdT3AIv-31" value="&lt;span style=&quot;font-size: 50px&quot;&gt;&lt;b&gt;结束&lt;/b&gt;&lt;/span&gt;" style="strokeWidth=2;html=1;shape=mxgraph.flowchart.terminator;whiteSpace=wrap;fillColor=#dae8fc;strokeColor=#6c8ebf;align=center;" parent="1" vertex="1">
          <mxGeometry x="1430" y="2638" width="284" height="160" as="geometry"/>
        </mxCell>
        <mxCell id="LSbhFq5ChQHliHdT3AIv-38" value="" style="swimlane;fontSize=15;startSize=0;fillColor=#7EA6E0;strokeColor=#6c8ebf;strokeWidth=19;dashed=1;" parent="1" vertex="1">
          <mxGeometry x="-960" y="300" width="5045" height="3051" as="geometry"/>
        </mxCell>
        <mxCell id="LSbhFq5ChQHliHdT3AIv-12" value="&lt;font style=&quot;font-size: 50px&quot;&gt;MongoDB&lt;br&gt;u_poi&lt;br&gt;&lt;/font&gt;" style="shape=cylinder;whiteSpace=wrap;html=1;boundedLbl=1;backgroundOutline=1;fillColor=#dae8fc;strokeColor=#6c8ebf;align=center;" parent="LSbhFq5ChQHliHdT3AIv-38" vertex="1">
          <mxGeometry x="3770" y="2570" width="330" height="218" as="geometry"/>
        </mxCell>
        <mxCell id="LSbhFq5ChQHliHdT3AIv-117" value="&lt;span style=&quot;font-size: 50px&quot;&gt;接收请求&lt;/span&gt;" style="ellipse;whiteSpace=wrap;html=1;aspect=fixed;dashed=1;strokeWidth=1;fillColor=#dae8fc;fontSize=15;strokeColor=#6c8ebf;" parent="LSbhFq5ChQHliHdT3AIv-38" vertex="1">
          <mxGeometry x="3818" y="384" width="272" height="272" as="geometry"/>
        </mxCell>
        <mxCell id="LSbhFq5ChQHliHdT3AIv-57" value="" style="swimlane;fontSize=15;startSize=0;fillColor=#7EA6E0;strokeColor=#6c8ebf;strokeWidth=19;dashed=1;" parent="1" vertex="1">
          <mxGeometry x="-860" y="4230" width="4945" height="3800" as="geometry"/>
        </mxCell>
        <mxCell id="LSbhFq5ChQHliHdT3AIv-65" value="&lt;font style=&quot;font-size: 50px&quot;&gt;MongoDB&lt;br&gt;&lt;br&gt;&lt;/font&gt;" style="shape=cylinder;whiteSpace=wrap;html=1;boundedLbl=1;backgroundOutline=1;fillColor=#dae8fc;strokeColor=#6c8ebf;align=center;" parent="LSbhFq5ChQHliHdT3AIv-57" vertex="1">
          <mxGeometry x="2206.5" y="3380" width="330" height="218" as="geometry"/>
        </mxCell>
        <mxCell id="LSbhFq5ChQHliHdT3AIv-68" value="&lt;span style=&quot;font-size: 50px&quot;&gt;&lt;b&gt;更新服务&lt;/b&gt;&lt;/span&gt;" style="rounded=0;whiteSpace=wrap;html=1;fillColor=#dae8fc;strokeColor=#6c8ebf;align=center;" parent="LSbhFq5ChQHliHdT3AIv-57" vertex="1">
          <mxGeometry x="3570" y="1826.5" width="482" height="260" as="geometry"/>
        </mxCell>
        <mxCell id="LSbhFq5ChQHliHdT3AIv-73" value="" style="endArrow=classic;html=1;strokeWidth=7;fontSize=15;entryX=1;entryY=0.5;entryDx=0;entryDy=0;exitX=0.5;exitY=1;exitDx=0;exitDy=0;" parent="LSbhFq5ChQHliHdT3AIv-57" source="LSbhFq5ChQHliHdT3AIv-68" target="LSbhFq5ChQHliHdT3AIv-65" edge="1">
          <mxGeometry width="50" height="50" relative="1" as="geometry">
            <mxPoint x="3010" y="1850" as="sourcePoint"/>
            <mxPoint x="3060" y="1800" as="targetPoint"/>
            <Array as="points">
              <mxPoint x="3820" y="3490"/>
            </Array>
          </mxGeometry>
        </mxCell>
        <mxCell id="LSbhFq5ChQHliHdT3AIv-74" value="&lt;font style=&quot;font-size: 50px&quot;&gt;存入&lt;/font&gt;" style="text;html=1;align=center;verticalAlign=middle;resizable=0;points=[];;labelBackgroundColor=#ffffff;fontSize=15;" parent="LSbhFq5ChQHliHdT3AIv-73" vertex="1" connectable="0">
          <mxGeometry x="-0.3689" y="7" relative="1" as="geometry">
            <mxPoint y="1" as="offset"/>
          </mxGeometry>
        </mxCell>
        <mxCell id="LSbhFq5ChQHliHdT3AIv-75" value="&lt;font style=&quot;font-size: 50px&quot;&gt;&lt;b&gt;管理后台客户端&lt;/b&gt;&lt;/font&gt;" style="ellipse;whiteSpace=wrap;html=1;aspect=fixed;dashed=1;strokeWidth=1;fillColor=#dae8fc;fontSize=15;strokeColor=#6c8ebf;" parent="LSbhFq5ChQHliHdT3AIv-57" vertex="1">
          <mxGeometry x="412" y="150" width="385" height="385" as="geometry"/>
        </mxCell>
        <mxCell id="LSbhFq5ChQHliHdT3AIv-76" value="&lt;font style=&quot;font-size: 50px&quot;&gt;&lt;b&gt;客户端&lt;/b&gt;&lt;/font&gt;" style="ellipse;whiteSpace=wrap;html=1;aspect=fixed;dashed=1;strokeWidth=1;fillColor=#dae8fc;fontSize=15;strokeColor=#6c8ebf;" parent="LSbhFq5ChQHliHdT3AIv-57" vertex="1">
          <mxGeometry x="2096" y="150" width="385" height="385" as="geometry"/>
        </mxCell>
        <mxCell id="LSbhFq5ChQHliHdT3AIv-77" value="&lt;font style=&quot;font-size: 50px&quot;&gt;Nginx||反向代理&lt;/font&gt;" style="rounded=0;whiteSpace=wrap;html=1;dashed=1;strokeWidth=1;fillColor=#dae8fc;fontSize=15;strokeColor=#6c8ebf;" parent="LSbhFq5ChQHliHdT3AIv-57" vertex="1">
          <mxGeometry x="236" y="1000" width="2660" height="310" as="geometry"/>
        </mxCell>
        <mxCell id="LSbhFq5ChQHliHdT3AIv-79" value="&lt;font style=&quot;font-size: 50px&quot;&gt;请&lt;br&gt;求&lt;/font&gt;" style="shape=singleArrow;direction=south;whiteSpace=wrap;html=1;dashed=1;strokeWidth=1;fillColor=#dae8fc;fontSize=15;strokeColor=#6c8ebf;" parent="LSbhFq5ChQHliHdT3AIv-57" vertex="1">
          <mxGeometry x="475.5" y="587.5" width="258" height="360" as="geometry"/>
        </mxCell>
        <mxCell id="LSbhFq5ChQHliHdT3AIv-81" value="&lt;font style=&quot;font-size: 50px&quot;&gt;请&lt;br&gt;求&lt;/font&gt;" style="shape=singleArrow;direction=south;whiteSpace=wrap;html=1;dashed=1;strokeWidth=1;fillColor=#dae8fc;fontSize=15;strokeColor=#6c8ebf;" parent="LSbhFq5ChQHliHdT3AIv-57" vertex="1">
          <mxGeometry x="2159.5" y="587.5" width="258" height="360" as="geometry"/>
        </mxCell>
        <mxCell id="LSbhFq5ChQHliHdT3AIv-85" value="&lt;span style=&quot;font-size: 50px&quot;&gt;&lt;b&gt;管理后台服务&lt;/b&gt;&lt;/span&gt;" style="rounded=0;whiteSpace=wrap;html=1;fillColor=#dae8fc;strokeColor=#6c8ebf;align=center;" parent="LSbhFq5ChQHliHdT3AIv-57" vertex="1">
          <mxGeometry x="412" y="1826.5" width="482" height="260" as="geometry"/>
        </mxCell>
        <mxCell id="LSbhFq5ChQHliHdT3AIv-86" value="&lt;span style=&quot;font-size: 50px&quot;&gt;&lt;b&gt;客户端服务&lt;/b&gt;&lt;/span&gt;" style="rounded=0;whiteSpace=wrap;html=1;fillColor=#dae8fc;strokeColor=#6c8ebf;align=center;" parent="LSbhFq5ChQHliHdT3AIv-57" vertex="1">
          <mxGeometry x="2130.5" y="1826.5" width="482" height="260" as="geometry"/>
        </mxCell>
        <mxCell id="LSbhFq5ChQHliHdT3AIv-87" value="&lt;font style=&quot;font-size: 50px&quot;&gt;Reids&lt;br&gt;&lt;/font&gt;" style="shape=cylinder;whiteSpace=wrap;html=1;boundedLbl=1;backgroundOutline=1;fillColor=#dae8fc;strokeColor=#6c8ebf;align=center;" parent="LSbhFq5ChQHliHdT3AIv-57" vertex="1">
          <mxGeometry x="2206.5" y="2780" width="330" height="218" as="geometry"/>
        </mxCell>
        <mxCell id="LSbhFq5ChQHliHdT3AIv-90" value="" style="endArrow=classic;html=1;strokeWidth=7;fontSize=15;entryX=0.5;entryY=0;entryDx=0;entryDy=0;exitX=0.156;exitY=1.001;exitDx=0;exitDy=0;exitPerimeter=0;" parent="LSbhFq5ChQHliHdT3AIv-57" source="LSbhFq5ChQHliHdT3AIv-77" target="LSbhFq5ChQHliHdT3AIv-85" edge="1">
          <mxGeometry width="50" height="50" relative="1" as="geometry">
            <mxPoint x="620" y="1530" as="sourcePoint"/>
            <mxPoint x="670" y="1480" as="targetPoint"/>
          </mxGeometry>
        </mxCell>
        <mxCell id="LSbhFq5ChQHliHdT3AIv-92" value="&lt;font style=&quot;font-size: 50px&quot;&gt;请求&lt;/font&gt;" style="text;html=1;align=center;verticalAlign=middle;resizable=0;points=[];;labelBackgroundColor=#ffffff;fontSize=15;" parent="LSbhFq5ChQHliHdT3AIv-90" vertex="1" connectable="0">
          <mxGeometry x="-0.3657" y="4" relative="1" as="geometry">
            <mxPoint as="offset"/>
          </mxGeometry>
        </mxCell>
        <mxCell id="LSbhFq5ChQHliHdT3AIv-91" value="" style="endArrow=classic;html=1;strokeWidth=7;fontSize=15;entryX=0.5;entryY=0;entryDx=0;entryDy=0;exitX=0.156;exitY=1.001;exitDx=0;exitDy=0;exitPerimeter=0;" parent="LSbhFq5ChQHliHdT3AIv-57" edge="1">
          <mxGeometry width="50" height="50" relative="1" as="geometry">
            <mxPoint x="2370" y="1310.5" as="sourcePoint"/>
            <mxPoint x="2372.039999999999" y="1826.6900000000005" as="targetPoint"/>
          </mxGeometry>
        </mxCell>
        <mxCell id="LSbhFq5ChQHliHdT3AIv-95" value="&lt;font style=&quot;font-size: 50px&quot;&gt;请求&lt;/font&gt;" style="text;html=1;align=center;verticalAlign=middle;resizable=0;points=[];;labelBackgroundColor=#ffffff;fontSize=15;" parent="LSbhFq5ChQHliHdT3AIv-91" vertex="1" connectable="0">
          <mxGeometry x="-0.258" y="-1" relative="1" as="geometry">
            <mxPoint y="-1" as="offset"/>
          </mxGeometry>
        </mxCell>
        <mxCell id="LSbhFq5ChQHliHdT3AIv-96" value="" style="endArrow=classic;html=1;strokeWidth=7;fontSize=15;exitX=0;exitY=0.5;exitDx=0;exitDy=0;entryX=0.5;entryY=1;entryDx=0;entryDy=0;" parent="LSbhFq5ChQHliHdT3AIv-57" source="LSbhFq5ChQHliHdT3AIv-65" target="LSbhFq5ChQHliHdT3AIv-85" edge="1">
          <mxGeometry width="50" height="50" relative="1" as="geometry">
            <mxPoint x="657" y="2770" as="sourcePoint"/>
            <mxPoint x="1097" y="2390" as="targetPoint"/>
            <Array as="points">
              <mxPoint x="653" y="3489"/>
            </Array>
          </mxGeometry>
        </mxCell>
        <mxCell id="LSbhFq5ChQHliHdT3AIv-98" value="&lt;font style=&quot;font-size: 50px&quot;&gt;读取&lt;/font&gt;" style="text;html=1;align=center;verticalAlign=middle;resizable=0;points=[];;labelBackgroundColor=#ffffff;fontSize=15;" parent="LSbhFq5ChQHliHdT3AIv-96" vertex="1" connectable="0">
          <mxGeometry x="0.3932" relative="1" as="geometry">
            <mxPoint y="1" as="offset"/>
          </mxGeometry>
        </mxCell>
        <mxCell id="LSbhFq5ChQHliHdT3AIv-101" value="" style="endArrow=classic;html=1;strokeWidth=7;fontSize=15;exitX=0.5;exitY=0;exitDx=0;exitDy=0;" parent="LSbhFq5ChQHliHdT3AIv-57" source="LSbhFq5ChQHliHdT3AIv-87" target="LSbhFq5ChQHliHdT3AIv-86" edge="1">
          <mxGeometry width="50" height="50" relative="1" as="geometry">
            <mxPoint x="2360" y="2490" as="sourcePoint"/>
            <mxPoint x="2410" y="2440" as="targetPoint"/>
          </mxGeometry>
        </mxCell>
        <mxCell id="LSbhFq5ChQHliHdT3AIv-102" value="&lt;font style=&quot;font-size: 50px&quot;&gt;读取&lt;/font&gt;" style="text;html=1;align=center;verticalAlign=middle;resizable=0;points=[];;labelBackgroundColor=#ffffff;fontSize=15;" parent="LSbhFq5ChQHliHdT3AIv-101" vertex="1" connectable="0">
          <mxGeometry x="-0.0877" y="-5" relative="1" as="geometry">
            <mxPoint x="-1" as="offset"/>
          </mxGeometry>
        </mxCell>
        <mxCell id="LSbhFq5ChQHliHdT3AIv-103" value="" style="endArrow=classic;html=1;strokeWidth=7;fontSize=15;entryX=0.5;entryY=1;entryDx=0;entryDy=0;exitX=0.5;exitY=0;exitDx=0;exitDy=0;" parent="LSbhFq5ChQHliHdT3AIv-57" source="LSbhFq5ChQHliHdT3AIv-65" target="LSbhFq5ChQHliHdT3AIv-87" edge="1">
          <mxGeometry width="50" height="50" relative="1" as="geometry">
            <mxPoint x="1870" y="3250" as="sourcePoint"/>
            <mxPoint x="1920" y="3200" as="targetPoint"/>
          </mxGeometry>
        </mxCell>
        <mxCell id="LSbhFq5ChQHliHdT3AIv-104" value="&lt;font style=&quot;font-size: 50px&quot;&gt;存入&lt;/font&gt;" style="text;html=1;align=center;verticalAlign=middle;resizable=0;points=[];;labelBackgroundColor=#ffffff;fontSize=15;" parent="LSbhFq5ChQHliHdT3AIv-103" vertex="1" connectable="0">
          <mxGeometry x="0.2024" y="9" relative="1" as="geometry">
            <mxPoint as="offset"/>
          </mxGeometry>
        </mxCell>
        <mxCell id="LSbhFq5ChQHliHdT3AIv-107" value="&lt;font style=&quot;font-size: 50px&quot;&gt;定时请求&lt;/font&gt;" style="ellipse;whiteSpace=wrap;html=1;aspect=fixed;dashed=1;strokeWidth=1;fillColor=#dae8fc;fontSize=15;strokeColor=#6c8ebf;" parent="LSbhFq5ChQHliHdT3AIv-57" vertex="1">
          <mxGeometry x="4510" y="1826.5" width="272" height="272" as="geometry"/>
        </mxCell>
        <mxCell id="LSbhFq5ChQHliHdT3AIv-111" value="" style="endArrow=classic;html=1;strokeWidth=7;fontSize=15;exitX=1;exitY=0.5;exitDx=0;exitDy=0;entryX=0;entryY=0.5;entryDx=0;entryDy=0;" parent="LSbhFq5ChQHliHdT3AIv-57" source="LSbhFq5ChQHliHdT3AIv-68" target="LSbhFq5ChQHliHdT3AIv-107" edge="1">
          <mxGeometry width="50" height="50" relative="1" as="geometry">
            <mxPoint x="4210" y="1900" as="sourcePoint"/>
            <mxPoint x="4260" y="1850" as="targetPoint"/>
          </mxGeometry>
        </mxCell>
        <mxCell id="LSbhFq5ChQHliHdT3AIv-113" value="&lt;font size=&quot;1&quot;&gt;&lt;b style=&quot;font-size: 200px&quot;&gt;Server1&lt;/b&gt;&lt;/font&gt;" style="text;html=1;align=center;verticalAlign=middle;resizable=0;points=[];;autosize=1;fontSize=15;" parent="1" vertex="1">
          <mxGeometry x="1310" y="-96.5" width="750" height="90" as="geometry"/>
        </mxCell>
        <mxCell id="LSbhFq5ChQHliHdT3AIv-114" value="&lt;span style=&quot;font-size: 200px&quot;&gt;&lt;b&gt;Server2&lt;/b&gt;&lt;/span&gt;" style="text;html=1;align=center;verticalAlign=middle;resizable=0;points=[];;autosize=1;fontSize=15;" parent="1" vertex="1">
          <mxGeometry x="1182.5" y="3830" width="750" height="90" as="geometry"/>
        </mxCell>
        <mxCell id="LSbhFq5ChQHliHdT3AIv-118" value="" style="endArrow=classic;html=1;strokeWidth=7;fontSize=15;entryX=1;entryY=0.5;entryDx=0;entryDy=0;exitX=0;exitY=0.5;exitDx=0;exitDy=0;" parent="1" source="LSbhFq5ChQHliHdT3AIv-117" target="LSbhFq5ChQHliHdT3AIv-9" edge="1">
          <mxGeometry width="50" height="50" relative="1" as="geometry">
            <mxPoint x="2690" y="850" as="sourcePoint"/>
            <mxPoint x="2740" y="800" as="targetPoint"/>
          </mxGeometry>
        </mxCell>
        <mxCell id="LSbhFq5ChQHliHdT3AIv-122" value="" style="endArrow=classic;startArrow=classic;html=1;strokeWidth=7;fontSize=15;entryX=1;entryY=0.5;entryDx=0;entryDy=0;exitX=0.5;exitY=0;exitDx=0;exitDy=0;fillColor=#f8cecc;strokeColor=#b85450;" parent="1" source="LSbhFq5ChQHliHdT3AIv-107" target="LSbhFq5ChQHliHdT3AIv-117" edge="1">
          <mxGeometry width="50" height="50" relative="1" as="geometry">
            <mxPoint x="3490" y="1210" as="sourcePoint"/>
            <mxPoint x="3650" y="820" as="targetPoint"/>
            <Array as="points">
              <mxPoint x="3750" y="820"/>
            </Array>
          </mxGeometry>
        </mxCell>
        <mxCell id="LQYoYDQjZ8IPqPVpz5zR-1" value="" style="endArrow=classic;html=1;strokeWidth=7;fontSize=15;entryX=0.75;entryY=1;entryDx=0;entryDy=0;exitX=1;exitY=0.5;exitDx=0;exitDy=0;" edge="1" parent="1" source="LSbhFq5ChQHliHdT3AIv-12" target="LSbhFq5ChQHliHdT3AIv-9">
          <mxGeometry width="50" height="50" relative="1" as="geometry">
            <mxPoint x="3120" y="1510" as="sourcePoint"/>
            <mxPoint x="3170" y="1460" as="targetPoint"/>
            <Array as="points">
              <mxPoint x="3370" y="2979"/>
              <mxPoint x="3370" y="1480"/>
              <mxPoint x="2487" y="1480"/>
            </Array>
          </mxGeometry>
        </mxCell>
        <mxCell id="LQYoYDQjZ8IPqPVpz5zR-2" value="&lt;font style=&quot;font-size: 50px&quot;&gt;读取&lt;/font&gt;" style="text;html=1;align=center;verticalAlign=middle;resizable=0;points=[];;labelBackgroundColor=#ffffff;fontSize=15;" vertex="1" connectable="0" parent="LQYoYDQjZ8IPqPVpz5zR-1">
          <mxGeometry x="0.4214" y="-5" relative="1" as="geometry">
            <mxPoint x="-1" as="offset"/>
          </mxGeometry>
        </mxCell>
      </root>
    </mxGraphModel>
  </diagram>
</mxfile>
